<svg xmlns="http://www.w3.org/2000/svg" width="2000" height="2008.275" viewBox="0 0 2000 2008.275"><g fill="#563d7c"><path d="M1015.104 864.568c51.076.001 89.805-11.109 116.187-33.33 26.38-22.219 39.57-54.993 39.571-98.322-.001-42.772-13.191-75.269-39.571-97.489-26.381-22.774-65.109-34.162-116.187-34.163H835.772v263.304h179.332zM1173.387 1123.706c-32.556-27.219-81.668-40.828-147.338-40.829H835.772v325.798h190.276c65.109 0 113.94-13.609 146.496-40.829 33.115-27.219 49.673-68.325 49.674-123.319 0-53.883-16.278-94.157-48.831-120.821z"/><path d="M1676.924 0H323.077C144.646 0 0 144.646 0 323.077v1362.122c0 178.431 144.646 323.077 323.077 323.077h1353.847c178.431 0 323.076-144.646 323.076-323.077V323.077C2000 144.646 1855.354 0 1676.924 0zM1423.44 1538.66c-81.949 58.883-206.556 88.323-373.818 88.323H511.628V382.954h486.637c174.56.001 300.849 26.109 378.869 78.325 78.579 52.218 117.87 135.819 117.87 250.806-.001 60.55-14.313 112.211-42.938 154.982-28.626 42.219-70.162 73.604-124.605 94.157 69.599 19.999 123.482 56.939 161.651 110.821 38.166 53.884 57.25 119.987 57.251 198.312-.002 119.987-40.975 209.421-122.923 268.303z"/></g></svg>