<?xml version="1.0" encoding="utf-8"?>
<!-- Generator: Adobe Illustrator 16.0.0, SVG Export Plug-In . SVG Version: 6.00 Build 0)  -->
<!DOCTYPE svg PUBLIC "-//W3C//DTD SVG 1.1//EN" "http://www.w3.org/Graphics/SVG/1.1/DTD/svg11.dtd">
<svg version="1.1" id="Layer_1" xmlns="http://www.w3.org/2000/svg" xmlns:xlink="http://www.w3.org/1999/xlink" x="0px" y="0px"
	 width="523.6px" height="128.2px" viewBox="0 0 523.6 128.2" enable-background="new 0 0 523.6 128.2" xml:space="preserve">
<g>
	<polygon fill="#131B28" points="223.9,46.2 223.9,46.2 220.5,58 	"/>
	<path fill="#131B28" d="M241.1,72l-3.7,0L241.1,72z"/>
	<polygon fill="#131B28" points="240.2,89.7 240.2,89.7 218.1,89.8 240.2,89.7 	"/>
	<path fill="#131B28" d="M244.8,72l-3.7,0L244.8,72z"/>
	<polygon fill="#131B28" points="242.1,88.2 246,73.5 242.1,88.2 	"/>
	<path fill="#131B28" d="M323.6,20.5l-7.2,33.8L323.6,20.5z"/>
	<polygon fill="#131B28" points="305.2,20.5 299.7,45.7 305.2,20.5 	"/>
	<path fill="#131B28" d="M322.4,19H307c-0.9,0-1.7,0.7-1.9,1.5l-5.5,25.2l-5.5,25.2c-0.2,0.8-1,1.5-1.9,1.5H283h-1.6
		c-10.8,0-9.5-7.4-7.3-17.6c0-0.1,0-0.2,0.1-0.3l0.2-1.3l0-0.2l0.5-2.6l0.5-2.8c0.2-0.8,0.4-2.1,0.6-2.9l2.5-12.1l2.5-12.1
		c0.2-0.8-0.4-1.5-1.2-1.5h-15.8c-0.9,0-1.7,0.7-1.9,1.5l-3.4,16.1l-3.4,16.1l0,0l-0.3,1.5c-3.9,17.8-2.9,34.8,18.3,35.3
		c0.3,0,0.6,0,0.6,0h33.3c0.9,0,1.7-0.7,1.9-1.5l7.2-33.8l7.2-33.8C323.8,19.7,323.2,19,322.4,19L322.4,19z"/>
	<path fill="#131B28" d="M383.6,72.6c0.9,0,1.4,0.7,1.2,1.5l-1.5,7.3"/>
	<polygon fill="#131B28" points="381.9,88.7 383.4,81.4 381.9,88.7 	"/>
	<path fill="#131B28" d="M380,90.3L380,90.3c-4.5,0-18.1,0.1-28.3,0.1C364.2,90.4,380,90.3,380,90.3L380,90.3z"/>
	<path fill="#131B28" d="M342.6,63.2c0-0.8,0.9-2.2,1.7-2.2l-1.9,0C341.5,69.7,342.6,63.2,342.6,63.2z"/>
	<path fill="#131B28" d="M353.1,90.4c-0.1,0-0.2,0-0.3,0C352.9,90.4,353,90.4,353.1,90.4z"/>
	<path fill="#131B28" d="M383.6,72.6c0.9,0,1.4,0.7,1.2,1.5l-1.5,7.3l-0.2,1.2"/>
	<path fill="#131B28" d="M360.4,90.4L360.4,90.4L360.4,90.4z"/>
	<path fill="#131B28" d="M356.6,90.4h-0.2H356.6z"/>
	<path fill="#131B28" d="M355.5,90.4c-0.1,0-0.2,0-0.4,0C355.2,90.4,355.4,90.4,355.5,90.4z"/>
	<path fill="#131B28" d="M354.3,90.4H354H354.3z"/>
	<path fill="#131B28" d="M356.4,90.4c-0.3,0-0.6,0-0.9,0C355.8,90.4,356.1,90.4,356.4,90.4z"/>
	<path fill="#131B28" d="M360.3,90.4c-1.2,0-2.5,0-3.7,0C357.9,90.4,359.1,90.4,360.3,90.4z"/>
	<path fill="#131B28" d="M380,90.2L380,90.2c-3.3,0-11.5,0.1-19.6,0.1C368.5,90.3,376.7,90.3,380,90.2z"/>
	<polygon fill="#131B28" points="381.9,88.7 383.1,82.6 381.9,88.7 381.9,88.7 	"/>
	<path fill="#131B28" d="M355.1,90.4h-0.8H355.1z"/>
	<path fill="#131B28" d="M352.8,90.4h-1.1H352.8z"/>
	<path fill="#131B28" d="M354,90.4h-0.9H354z"/>
	<path fill="#131B28" d="M129.4,63.4l2.4-10.6L129,64.9l-2.6,12.3l2.3-10.8C128.9,65.6,129.2,64.2,129.4,63.4z"/>
	<path fill="#131B28" d="M157.9,18.8H141c-0.9,0-1.7,0.7-1.9,1.5l-1.6,7.1l-1.6,7.1c-0.2,0.8,0.4,1.5,1.2,1.5h17
		c0.9,0,1.7-0.7,1.9-1.5l1.5-7.1l1.5-7.1v0C159.3,19.5,158.8,18.8,157.9,18.8L157.9,18.8z"/>
	<polygon fill="#131B28" points="154.2,42.3 154.2,42.3 149.3,65.2 	"/>
	<path fill="#131B28" d="M105.2,118.1c0,0,8.5,0.1,13.9,0.1C115,118.2,108.3,118.1,105.2,118.1L105.2,118.1L105.2,118.1z"/>
	<path fill="#131B28" d="M134.1,42.3l-2.4,10.6L134.1,42.3z"/>
	<path fill="#131B28" d="M153,40.8h-17c-0.9,0-1.7,0.7-1.9,1.5l-2.4,10.6l-2.4,10.6c-0.2,0.8-0.5,2.2-0.7,3l-2.3,10.8L124.1,88
		c-0.2,0.8-0.5,2.2-0.8,3c0,0-3.2,9.4-8.5,9.3c-0.2,0-0.4,0-0.7,0c-2.6,0-4.6-0.1-4.6-0.1h0c-0.9,0-1.7,0.7-1.9,1.5l-1.8,7.4
		l-1.8,7.4c-0.2,0.8,0.3,1.5,1.2,1.5c3,0,9.8,0.1,13.9,0.1c13.3,0,20.4-7.4,24.9-28.6l5.3-24.4l4.9-22.9
		C154.4,41.4,153.9,40.8,153,40.8L153,40.8z"/>
	<path fill="#131B28" d="M394.5,89.5c-0.9,0-1.4-0.7-1.2-1.5L406,28.1"/>
	<path fill="#131B28" d="M412.2,88l5.2-25.6L412.2,88z"/>
	<path fill="#131B28" d="M393.4,88.8c-0.1-0.4,0-1.4,0.1-2.3l6.1-28.4L393.2,88c-0.2,0.8,0.4,1.5,1.2,1.5h1.6
		C395.2,89.5,393.5,89.2,393.4,88.8z"/>
	<path fill="#131B28" d="M411.2,89.2c-0.5,0.2-1.5,0.3-2.4,0.3h1.6c0.9,0,1.7-0.7,1.9-1.5l0.3-1.5C412.4,87.3,411.7,89,411.2,89.2z"
		/>
	<polygon fill="#131B28" points="414.8,75.2 417.1,63.9 417.1,64 	"/>
	<path fill="#131B28" d="M465.3,32.1L466,35c0.2,0.8-0.3,1.5-1.2,1.5"/>
	<path fill="#131B28" d="M412.5,86.5l2.3-11.3L412.5,86.5z"/>
	<path fill="#131B28" d="M464.6,29.1l0.7,3L464.6,29.1z"/>
	<path fill="#131B28" d="M417.1,63.9c0.2-0.8,0.5-2.2,0.6-3l2.4-11.4l-2.8,12.9L417.1,63.9z"/>
	<path fill="#131B28" d="M406.2,27.1c-0.2,0.8-0.4,1.8-0.5,2.5l-6.1,28.4l6.4-29.9L406.2,27.1L406.2,27.1z"/>
	<path fill="#131B28" d="M466,35l-0.7-2.9l-0.7-3l-0.4-1.5c-1.4-5.4-5.4-8.5-14.2-8.5l-13.7,0l-12.6,0h-1.1h-13.1
		c-0.9,0-1.7,0.7-1.9,1.5l-0.6,3l-0.7,3.5l-0.2,1l-6.4,29.9l-6.1,28.4c-0.2,0.8-0.2,1.9-0.1,2.3c0.1,0.4,1.7,0.8,2.6,0.8h12.8
		c0.9,0,1.9-0.2,2.4-0.3c0.5-0.2,1.2-1.9,1.3-2.7l2.3-11.3l2.3-11.3l0,0l0.3-1.5l2.8-12.9l2.4-11.4c0.2-0.8,1-1.5,1.9-1.5l40.3,0
		C465.6,36.5,466.2,35.9,466,35L466,35z"/>
	<path fill="#131B28" d="M517.9,8.7c-0.9,0-2.2,0-3.1,0h-12.9c-0.9,0-1.9,0.6-2.4,1.3l-28.5,41.8c-0.5,0.7-1,0.6-1.2-0.2l-2.1-9.2
		c-0.2-0.8-1-1.5-1.9-1.5h-18.3c-0.9,0-1.4,0.7-1.1,1.5l8.2,28.8c0.2,0.8,0.3,2.2,0,3l-3.6,13.9c-0.2,0.8,0.3,1.5,1.2,1.5h18.1
		c0.9,0,1.7-0.7,1.9-1.5l3.6-13.9c0.2-0.8,0.8-2.1,1.3-2.7l46.3-61.5c0.5-0.7,0.2-1.2-0.6-1.2L517.9,8.7L517.9,8.7z"/>
	<path fill="#131B28" d="M372.2,44.8L372.2,44.8c-0.1,0.9-1,1.6-1.8,1.6h-23.2c-0.8,0-1.2-0.5-1.1-1.2l0-0.1l0,0l0-0.1
		c0,0,0-0.2,0.1-0.4c2.2-5.9,6.7-9.8,15.2-9.8C371,34.8,372.8,39.5,372.2,44.8L372.2,44.8z M365.4,17.9c-29.8,0-36.9,18.1-40.9,36.4
		c-4,18.6-3.6,36.1,27.3,36.1h1.1c0.1,0,0.2,0,0.3,0h0.9h0.3h0.8c0.1,0,0.2,0,0.4,0c0.3,0,0.6,0,0.9,0h0.2c1.2,0,2.5,0,3.7,0h0.1
		c8.2,0,16.3-0.1,19.6-0.1c0.8,0,1.7-0.7,1.9-1.5l1.2-6.1l0.2-1.2l1.5-7.3c0.2-0.8-0.4-1.5-1.2-1.5h-27.8c-11,0-14.3-2.9-13.1-11.6
		h44.4l0,0l0,0c0.7,0,1.4-0.5,1.6-1.1c0-0.1,0.1-0.3,0.1-0.4l0,0C395.5,34.7,393.6,17.9,365.4,17.9L365.4,17.9z"/>
	<path fill="#131B28" d="M224.3,44.7l-0.4,1.5l0,0L220.5,58l-3.3,11.9c-0.2,0.8-1.1,1.5-2,1.5h-17.7c-13.5,0-16.7-10.5-13.5-26
		c3.3-15.9,9.7-25.7,22.9-26.7C225.1,17.3,228.7,30,224.3,44.7L224.3,44.7z M236.5,70.5c0,0,8.4-20.3,10.3-32
		C249.3,22.8,241.5,0,211.1,0c-30.2,0-43.3,21.7-48.3,45.4c-5,23.8,1.6,44.7,31.6,44.5l23.7-0.1l22.1-0.1c0.9,0,1.7-0.7,1.9-1.5
		l3.9-14.7c0.2-0.8-0.3-1.5-1.2-1.5l-3.7,0l-3.7,0c-0.7,0-1.1-0.5-1.1-1.1C236.4,70.7,236.4,70.6,236.5,70.5L236.5,70.5z"/>
	<circle fill="#131B28" cx="384.9" cy="56.9" r="1"/>
	<path fill="#0868AC" d="M6,30.5c-8.3,12-7.3,27.6-0.9,40.3c0.2,0.3,0.3,0.6,0.5,0.9c0.1,0.2,0.2,0.4,0.3,0.6
		c0.1,0.1,0.1,0.2,0.2,0.3c0.1,0.2,0.2,0.4,0.3,0.6c0.2,0.3,0.4,0.7,0.6,1c0.1,0.2,0.2,0.4,0.3,0.6c0.2,0.4,0.5,0.7,0.7,1.1
		c0.1,0.2,0.2,0.3,0.3,0.5c0.3,0.5,0.7,1,1,1.5l0,0l0.2,0.2c0.3,0.4,0.6,0.8,0.9,1.2c0.1,0.1,0.2,0.3,0.4,0.4
		c0.3,0.4,0.6,0.7,0.9,1.1c0.1,0.1,0.2,0.3,0.3,0.4c0.4,0.5,0.8,0.9,1.2,1.4l0,0l0,0.1c0.4,0.4,0.8,0.9,1.2,1.3
		c0.1,0.1,0.3,0.3,0.4,0.4c0.3,0.3,0.6,0.6,1,1c0.1,0.1,0.3,0.3,0.4,0.4c0.4,0.4,0.9,0.8,1.3,1.2l0,0l0.2,0.2c0.4,0.3,0.8,0.7,1.2,1
		c0.2,0.1,0.3,0.3,0.5,0.4c0.3,0.3,0.7,0.5,1,0.8c0.2,0.1,0.4,0.3,0.5,0.4c0.4,0.3,0.8,0.5,1.1,0.8c0.1,0.1,0.3,0.2,0.4,0.3l0.1,0.1
		c0.4,0.2,0.7,0.5,1.1,0.7c0.2,0.1,0.3,0.2,0.5,0.3c0.6,0.4,1.1,0.7,1.7,1.1c0.2,0.1,0.3,0.2,0.5,0.3c0.4,0.2,0.9,0.5,1.3,0.7
		c0.2,0.1,0.5,0.2,0.7,0.4c0.3,0.2,0.6,0.3,0.9,0.5l0.2,0.1c0.1,0.1,0.3,0.1,0.4,0.2c0.5,0.2,1,0.5,1.5,0.7c0.1,0,0.2,0.1,0.3,0.1
		c0.6,0.2,1.1,0.5,1.7,0.7c0.1,0.1,0.3,0.1,0.4,0.2c0.5,0.2,1.1,0.4,1.6,0.6l0.2,0.1c0.6,0.2,1.2,0.4,1.8,0.6c0.1,0,0.3,0.1,0.4,0.1
		c0.6,0.2,1.2,0.4,1.9,0.5c40.3,7.4,52-24.2,52-24.2C82,87.4,64.6,90.8,48,87c-0.6-0.1-1.2-0.3-1.8-0.5c-0.2,0-0.3-0.1-0.5-0.1
		c-0.6-0.2-1.2-0.4-1.8-0.6l-0.2-0.1c-0.5-0.2-1-0.4-1.6-0.6C42,85,41.9,85,41.7,84.9c-0.6-0.2-1.1-0.5-1.7-0.7
		c-0.1,0-0.2-0.1-0.3-0.1c-0.5-0.2-1-0.4-1.4-0.7c-0.1-0.1-0.3-0.1-0.4-0.2c-0.4-0.2-0.7-0.4-1.1-0.6c-0.2-0.1-0.5-0.3-0.7-0.4
		c-0.4-0.2-0.9-0.5-1.3-0.7c-0.1-0.1-0.3-0.2-0.4-0.2c-0.6-0.3-1.2-0.7-1.7-1.1c-0.2-0.1-0.3-0.2-0.5-0.3c-0.4-0.3-0.8-0.5-1.2-0.8
		c-0.1-0.1-0.3-0.2-0.4-0.3c-0.4-0.3-0.8-0.6-1.2-0.8c-0.2-0.1-0.3-0.3-0.5-0.4c-0.4-0.3-0.7-0.5-1-0.8c-0.2-0.1-0.3-0.2-0.5-0.4
		c-0.4-0.4-0.9-0.7-1.3-1.1l-0.1-0.1c-0.5-0.4-0.9-0.8-1.4-1.2c-0.1-0.1-0.3-0.2-0.4-0.4c-0.3-0.3-0.7-0.6-1-1
		c-0.1-0.1-0.3-0.3-0.4-0.4c-0.4-0.4-0.8-0.8-1.2-1.3l-0.1-0.1c-0.4-0.5-0.8-0.9-1.2-1.4c-0.1-0.1-0.2-0.3-0.3-0.4
		c-0.3-0.4-0.6-0.7-0.9-1.1c-0.1-0.1-0.2-0.3-0.3-0.4c-0.3-0.5-0.7-0.9-1-1.4c-9.2-12.5-12.5-29.8-5.1-44"/>
	<path fill="#0868AC" d="M31.9,20.4c-6,8.7-5.7,20.3-1,29.5c0.8,1.5,1.7,3,2.7,4.5c0.9,1.3,1.9,2.8,3.1,3.9c0.4,0.5,0.9,0.9,1.4,1.4
		c0.1,0.1,0.2,0.2,0.4,0.4c0.5,0.4,0.9,0.9,1.4,1.3l0.1,0l0,0c0.5,0.5,1.1,0.9,1.6,1.3c0.1,0.1,0.2,0.2,0.4,0.3
		c0.6,0.4,1.1,0.8,1.7,1.2l0,0c0.3,0.2,0.5,0.3,0.8,0.5c0.1,0.1,0.2,0.2,0.4,0.2c0.4,0.3,0.8,0.5,1.3,0.8l0.2,0.1
		c0.4,0.2,0.7,0.4,1.1,0.6c0.1,0.1,0.3,0.1,0.4,0.2c0.3,0.1,0.5,0.3,0.8,0.4l0.1,0.1c0.5,0.3,1.1,0.5,1.6,0.8
		c0.1,0.1,0.2,0.1,0.4,0.1c0.4,0.2,0.9,0.4,1.3,0.5c0.2,0.1,0.4,0.1,0.6,0.2c0.4,0.1,0.8,0.3,1.2,0.4c0.2,0.1,0.4,0.1,0.5,0.2
		c0.6,0.2,1.2,0.4,1.8,0.5C87,75,94.1,51,94.1,51c-6.5,9.3-19,13.8-32.4,10.3c-0.6-0.2-1.2-0.3-1.8-0.5c-0.2-0.1-0.4-0.1-0.5-0.2
		c-0.4-0.1-0.8-0.3-1.2-0.4c-0.2-0.1-0.4-0.1-0.6-0.2c-0.4-0.2-0.9-0.3-1.3-0.5c-0.1-0.1-0.2-0.1-0.4-0.2c-0.5-0.2-1.1-0.5-1.6-0.8
		c-0.3-0.1-0.5-0.3-0.8-0.4c-0.2-0.1-0.3-0.2-0.5-0.2c-0.3-0.2-0.7-0.4-1-0.6l-0.2-0.1c-0.4-0.2-0.8-0.5-1.2-0.8
		c-0.1-0.1-0.2-0.2-0.4-0.3c-0.3-0.2-0.5-0.4-0.8-0.5c-0.6-0.4-1.1-0.8-1.7-1.2c-0.1-0.1-0.3-0.2-0.4-0.3
		C41.4,49.5,36.8,43.2,34.6,36c-2.3-7.4-1.8-15.8,2.2-22.6"/>
	<path fill="#0868AC" d="M53.6,12.9c-3.6,5.2-3.9,11.7-1.4,17.5c2.6,6.1,7.9,10.9,14.1,13.2c0.3,0.1,0.5,0.2,0.8,0.3
		c0.1,0,0.2,0.1,0.3,0.1c0.4,0.1,0.7,0.2,1.1,0.3c17.2,3.3,21.8-8.8,23.1-10.6c-4.1,5.9-10.9,7.3-19.4,5.2c-0.7-0.2-1.4-0.4-2-0.6
		c-0.8-0.3-1.6-0.6-2.4-1c-1.5-0.7-2.9-1.6-4.2-2.6C56,29,51.4,18.1,56.3,9.2"/>
	<polygon fill="#0868AC" points="247.2,114.7 242.2,126 236.7,126 237.2,115.8 233.2,126 227.9,126 227.7,114.7 228.3,111.9 
		232.1,111.9 231.3,123.1 235.5,111.9 240.7,111.9 240.3,123.2 244.5,111.9 247.7,111.9 	"/>
	<path fill="#0868AC" d="M255.8,118.1c0.5-2.2,0.3-2.6-0.8-2.6h-1.7l-1.1,5.2l-1.7,5.4h-3.2l2.6-12.2l0.4-1.8h2.9l0.4,0.8
		c0,0,1.7-1,3.3-1c3.5,0,3.2,2.6,2.5,6.3H255.8z"/>
	<path fill="#0868AC" d="M266.2,110.2c-1.4,0-2.3-0.4-2-2.1c0.4-1.7,1.5-2.1,2.9-2.1c1.4,0,2.3,0.4,1.9,2.1
		C268.7,109.7,267.6,110.2,266.2,110.2z M264.7,126h-3.2l0.6-5.5l1.1-5.1l-2.2-0.5l0.6-3h6L264.7,126L264.7,126z"/>
	<path fill="#0868AC" d="M278.4,114.9l-4,0.5l-1.1,5.4c-0.3,1.5-0.3,1.9,1,1.9h2.6l-0.6,2.8c0,0-2.4,0.7-3.4,0.7
		c-4.1,0-4-2.2-3.3-5.6l1.1-5.3l-2.2-0.5l0.7-3h2.3l1.3-3.5h3.1l-0.8,3.5h3.9L278.4,114.9z"/>
	<path fill="#0868AC" d="M286.6,115.1c-1.9,0-2.8,1-3.2,2.7l5.3-0.4C288.9,116.2,288.7,115.1,286.6,115.1z M282.9,120.3
		c-0.2,1.7,0.4,2.3,2.6,2.3h5.5l-0.5,2.6c0,0-3.3,0.9-5.8,0.9c-6.2,0-6.2-3.5-5.4-7.2c0.8-3.6,2.2-7.3,8.2-7.3c5.7,0,6,3.5,4.6,8.6
		H282.9z"/>
	<polygon fill="#0868AC" points="304.6,126 301.5,126 302.1,120.5 304.3,110.1 302.1,109.5 302.8,106.5 308.8,106.5 	"/>
	<path fill="#0868AC" d="M316.1,115.1c-1.9,0-2.8,1-3.2,2.7l5.3-0.4C318.4,116.2,318.2,115.1,316.1,115.1z M312.3,120.3
		c-0.2,1.7,0.4,2.3,2.6,2.3h5.5l-0.6,2.6c0,0-3.3,0.9-5.8,0.9c-6.2,0-6.2-3.5-5.4-7.2c0.8-3.6,2.2-7.3,8.2-7.3c5.7,0,6,3.5,4.6,8.6
		H312.3z"/>
	<path fill="#0868AC" d="M336,115.3c0,0-4,0-5.1,0c-2.3,0-2.6,0.7-2.8,1.5l-0.1,0.7l7.4,0.6c0,0,0,2.4-0.3,3.7
		c-0.4,2.2-2.8,4.5-6.9,4.5c-2.1,0-5.4-0.8-5.4-0.8l0.6-2.7h5.1c2.3,0,2.6-0.6,2.7-1.2l0.2-0.9l-7.3-0.6c0,0-0.3-1.8,0.1-3.6
		c0.6-2.5,2.8-4.6,7-4.6c2.1,0,5.4,0.8,5.4,0.8L336,115.3L336,115.3z"/>
	<path fill="#0868AC" d="M349.8,115.3c0,0-4,0-5.1,0c-2.3,0-2.6,0.7-2.8,1.5l-0.1,0.7l7.4,0.6c0,0,0,2.4-0.3,3.7
		c-0.4,2.2-2.8,4.5-6.9,4.5c-2.1,0-5.4-0.8-5.4-0.8l0.6-2.7h5.1c2.3,0,2.6-0.6,2.7-1.2l0.2-0.9l-7.3-0.6c0,0-0.3-1.8,0.1-3.6
		c0.6-2.5,2.8-4.6,7-4.6c2.1,0,5.4,0.8,5.4,0.8L349.8,115.3L349.8,115.3z"/>
	<path fill="#0868AC" d="M354.1,128.2h-2.8l0.1-2.1c-1-0.1-1.5-0.8-1.3-2c0.4-1.7,1.4-2.1,2.9-2.1c1.4,0,2.3,0.4,1.9,2.1
		L354.1,128.2z"/>
	<path fill="#0868AC" d="M372.5,115.4c-2.1,0-2.8,1.2-3.3,3.5c-0.5,2.3-0.3,3.6,1.7,3.6h2.9l1.6-7.1H372.5z M377.2,124.2l-0.4,1.8
		l-2.9,0l-0.4-0.9c0,0-2.5,1.1-4.3,1.1c-4.4,0-4.6-3.6-3.8-7.3c0.8-3.7,2.5-7.2,6.9-7.2c1.6,0,3.7,0.8,3.7,0.8l1.8-6h3.2
		L377.2,124.2z"/>
	<path fill="#0868AC" d="M388.6,115.3c-2.7,0-3.5,1.5-4,3.7c-0.4,2.2-0.2,3.8,2.4,3.8c2.8,0,3.6-1.5,4.1-3.8
		C391.6,116.9,391.4,115.3,388.6,115.3z M386.3,126.2c-5.7,0-6.1-3.5-5.4-7.2c0.8-3.7,2.8-7.2,8.5-7.2c5.6,0,6.2,3.5,5.4,7.2
		C394,122.7,392,126.2,386.3,126.2z"/>
	<path fill="#0868AC" d="M418.5,126l0.6-5.4l0.3-1.5c0.4-2.1,0.7-3.6-1.4-3.6h-1.7c0.1,1.1-0.1,2.3-0.4,3.5l-1.5,7h-3.2l0.6-5.4
		l0.3-1.5c0.4-2.1,0.7-3.6-1.4-3.6h-1.4L407,126h-3.7l3-14.1h2.9l0.4,0.9c0,0,2-1,3.5-1c1.2,0,2.1,0.6,2.4,1.2
		c0.7-0.4,2.6-1.2,4.1-1.2c4.4,0,4.3,3.6,3.5,7.2l-1.5,7H418.5z"/>
	<path fill="#0868AC" d="M433.1,115.3c-2.7,0-3.5,1.5-4,3.7c-0.4,2.2-0.2,3.8,2.4,3.8c2.8,0,3.6-1.5,4.1-3.8
		C436,116.9,435.9,115.3,433.1,115.3z M430.8,126.2c-5.7,0-6.1-3.5-5.4-7.2c0.8-3.7,2.8-7.2,8.5-7.2c5.6,0,6.2,3.5,5.4,7.2
		C438.4,122.7,436.4,126.2,430.8,126.2z"/>
	<path fill="#0868AC" d="M448.8,118.1c0.5-2.2,0.3-2.6-0.8-2.6h-1.7l-1.1,5.2l-1.7,5.4h-3.2l2.6-12.2l0.4-1.8h2.9l0.4,0.8
		c0,0,1.7-1,3.3-1c3.5,0,3.2,2.6,2.5,6.3H448.8z"/>
	<path fill="#0868AC" d="M461.1,115.1c-1.9,0-2.8,1-3.2,2.7l5.3-0.4C463.5,116.2,463.2,115.1,461.1,115.1z M457.4,120.3
		c-0.2,1.7,0.4,2.3,2.6,2.3h5.5l-0.5,2.6c0,0-3.3,0.9-5.8,0.9c-6.2,0-6.2-3.5-5.4-7.2c0.8-3.6,2.2-7.3,8.2-7.3c5.7,0,6,3.5,4.6,8.6
		H457.4z"/>
	<path fill="#0868AC" d="M469.6,126.2c-1.4,0-2.3-0.4-2-2.1c0.3-1.7,1.4-2.1,2.9-2.1c1.3,0,2.3,0.4,1.9,2.1
		C472,125.8,470.9,126.2,469.6,126.2z"/>
</g>
</svg>
